<?xml version="1.0" encoding="UTF-8" standalone="no"?>
<!-- Created with Inkscape (http://www.inkscape.org/) -->

<svg
   version="1.1"
   id="svg1"
   width="512"
   height="512"
   viewBox="0 0 512 512"
   xmlns="http://www.w3.org/2000/svg"
   xmlns:svg="http://www.w3.org/2000/svg">
  <defs
     id="defs1" />
  <g
     id="g1"
     transform="translate(-3.5889674,-9.5882301)">
    <g
       id="g2"
       transform="translate(3.5889674,9.5882301)">
      <path
         style="fill:#f2cb65"
         d="M 225.64068,378.59555 C 221.17592,372.74196 221,371.25493 221,339.36916 c 0,-19.75494 -0.37704,-31.20514 -1.07018,-32.5003 -1.03577,-1.93534 -1.92832,-1.98952 -27.75,-1.68426 L 165.5,305.5 159,302.32043 c -3.575,-1.74877 -7.625,-4.14147 -9,-5.31712 -2.42723,-2.07532 -2.43202,-2.10412 -0.16435,-0.9894 3.36873,1.65596 3.61683,0.67729 0.70545,-2.7827 -1.39761,-1.66096 -2.5411,-3.51746 -2.5411,-4.12557 0,-2.08007 1.91402,-1.10653 4.70737,2.39433 1.53595,1.92498 3.46763,3.48788 4.29263,3.4731 0.94286,-0.0169 0.32712,-1.0383 -1.65777,-2.74997 -1.73677,-1.49771 -3.87427,-4.16325 -4.75,-5.92344 -2.52837,-5.08195 -1.85423,-5.10435 1.35431,-0.045 1.6206,2.55542 4.84955,5.90602 7.17544,7.44579 l 4.22889,2.79956 28.85376,0.68567 28.85376,0.68567 3.04753,2.56433 c 1.67614,1.41038 3.463,2.56433 3.97081,2.56433 0.5493,0 0.8948,15.29063 0.85298,37.75 -0.041,22.00332 -0.42877,36.91574 -0.92971,35.75 -0.76987,-1.7916 -0.86675,-1.72213 -0.92971,0.66667 -0.0387,1.46666 0.49221,2.86756 1.17971,3.11309 0.6875,0.24554 0.97525,0.74529 0.63945,1.11055 -0.3358,0.36527 -1.79775,-0.89237 -3.24877,-2.79476 z M 224.3024,340.3001 C 224.75211,313.79883 224.5254,309 222.82369,309 c -0.57147,0 -0.87816,10.54167 -0.77825,26.75 0.14742,23.91504 0.53912,31.99877 1.50377,31.03412 0.16996,-0.16995 0.50889,-12.08776 0.75319,-26.48402 z m 3.40333,-31.5501 c -0.23835,-1.2375 -0.43337,-0.225 -0.43337,2.25 0,2.475 0.19502,3.4875 0.43337,2.25 0.23836,-1.2375 0.23836,-3.2625 0,-4.5 z m -52.4367,-5.40594 c -0.67703,-0.27392 -2.02703,-0.29059 -3,-0.0371 -0.97297,0.25354 -0.41903,0.47766 1.23097,0.49804 1.65,0.0204 2.44606,-0.18706 1.76903,-0.46099 z M 173.5,299 c 1.4253,-0.61247 0.41957,-0.84563 -3.5,-0.8114 -4.53738,0.0396 -4.97493,0.18164 -2.5,0.8114 3.90728,0.99423 3.68629,0.99423 6,0 z m 83.08983,59.5 c -0.61106,-4.36508 -1.04271,-5.45503 -1.58411,-4 -1.37388,3.69229 -2.1274,-20.39968 -1.81406,-58 0.16959,-20.35 0.64584,-36.2125 1.05834,-35.25 0.4125,0.9625 1.02739,2.5375 1.36643,3.5 0.41205,1.16982 0.77122,1.33558 1.08333,0.5 0.2568,-0.6875 0.87941,-1.25 1.38357,-1.25 1.06099,0 1.09072,86.51968 0.0326,95 l -0.68622,5.5 z m 90.4935,-60.80266 c 0.22917,-0.16646 1.76667,-1.09317 3.41667,-2.05935 l 3,-1.75669 -2.36078,2.05935 C 349.84078,297.07329 348.30328,298 347.72255,298 c -0.58074,0 -0.86838,-0.1362 -0.63922,-0.30266 z M 146.27814,292.75 c -1.49918,-1.93844 -2.44224,-3.75 -1.95217,-3.75 0.24421,0 1.18114,1.125 2.08207,2.5 1.68584,2.57291 1.59195,3.47635 -0.1299,1.25 z m -3.71385,-6.45687 c -0.54268,-1.4252 -0.42782,-1.54006 0.5598,-0.5598 0.68342,0.67834 0.99067,1.48524 0.68278,1.79313 -0.30789,0.30789 -0.86705,-0.24711 -1.24258,-1.23333 z m 26.65822,-2.84983 c -1.22238,-0.85619 -2.19399,-2.54369 -2.15912,-3.75 0.0615,-2.12666 0.0926,-2.12032 1.02394,0.20852 l 0.96055,2.40183 2.22606,-2.02686 c 1.22433,-1.11478 3.24428,-2.55199 4.48877,-3.19381 1.8389,-0.94838 2.07065,-1.52583 1.23729,-3.08298 -0.83283,-1.55616 -0.60044,-2.13928 1.23729,-3.10466 3.98384,-2.09278 17.17163,-13.81975 16.40424,-14.58715 -0.29498,-0.29498 -2.135,0.45171 -4.08893,1.6593 -4.71035,2.91116 -4.57052,1.79631 0.17953,-1.43144 4.62532,-3.14298 7.38306,-3.2012 10.83865,-0.22882 l 2.68231,2.30722 -5.87654,5.25088 c -3.2321,2.88798 -8.23905,6.82379 -11.12655,8.74623 -2.8875,1.92244 -5.25,4.18091 -5.25,5.01882 0,2.36123 -5.57311,7.36962 -8.20057,7.36962 -1.29493,0 -3.35455,-0.70052 -4.57692,-1.5567 z m 31.61232,-22.76749 c 1.20091,-1.2783 1.87935,-2.6283 1.50765,-3 -1.18217,-1.18216 -1.86766,-0.74962 -3.68341,2.32419 -2.10711,3.56706 -0.89432,3.94377 2.17576,0.67581 z m -61.14962,19.79026 c -2.10839,-4.42134 -2.11631,-5.06874 -0.041,-3.34636 1.45723,1.2094 1.56634,1.11916 0.95932,-0.7934 -0.37671,-1.1869 -0.2392,-2.43347 0.30558,-2.77016 1.16983,-0.723 2.79283,2.0161 3.49764,5.90287 0.49776,2.745 0.48421,2.75265 -1.60213,0.9047 -2.08817,-1.84958 -2.09906,-1.84286 -1.43534,0.88628 0.90505,3.72152 0.33867,3.45788 -1.68411,-0.78393 z m 4.49998,-8.65126 c -2.29934,-5.03399 -4.025,-9.30833 -3.8348,-9.49853 0.1902,-0.1902 2.24919,3.75081 4.57554,8.75779 2.32634,5.00699 4.052,9.28133 3.83479,9.49854 -0.2172,0.21721 -2.2762,-3.7238 -4.57553,-8.7578 z m 219.84661,6.90307 c -0.0175,-0.43016 0.7127,-2.45516 1.62264,-4.5 0.90995,-2.04483 1.5738,-4.08883 1.47523,-4.54221 -0.0986,-0.45338 0.34031,-0.50324 0.97529,-0.1108 0.71705,0.44316 0.96849,0.18714 0.66358,-0.67567 -0.27,-0.76406 0.41852,-3.1892 1.53006,-5.3892 1.11154,-2.2 3.05506,-6.475 4.31892,-9.5 1.26387,-3.025 2.31696,-4.88127 2.34021,-4.12505 0.0232,0.75623 -1.03,3.90623 -2.34056,7 -1.31055,3.09378 -3.59417,8.62252 -5.07471,12.2861 -2.52835,6.25638 -5.43956,11.30514 -5.51066,9.55683 z M 335.75,276.25796 c -2.56249,-0.59246 -2.13459,-3.12561 0.75,-4.43991 1.87016,-0.85211 3.12984,-0.85211 5,0 3.00243,1.36799 3.3436,3.21532 0.45427,2.45974 -1.15942,-0.3032 -2.56748,0.0975 -3.25,0.9249 -0.66235,0.80294 -1.99177,1.27781 -2.95427,1.05527 z M 221.3997,273.23469 C 217.82646,270.84877 217.08694,264.91306 220,262 c 4.6596,-4.6596 12.42133,-1.72656 12.19671,4.60894 -0.20378,5.7478 -6.40898,9.55571 -10.79701,6.62575 z m -49.5872,-2.9178 c 0.72187,-0.28887 1.58437,-0.25335 1.91667,0.0789 0.33229,0.33229 -0.25834,0.56864 -1.3125,0.52522 -1.16495,-0.048 -1.4019,-0.28494 -0.60417,-0.60416 z m 107.26645,-3.9119 c -0.0872,-2.31277 2.77847,-5.40779 4.99979,-5.40002 0.86615,0.003 0.38612,0.88182 -1.22904,2.25 -1.45766,1.23477 -2.88463,2.92003 -3.17105,3.74503 -0.35139,1.01215 -0.54643,0.81863 -0.5997,-0.59501 z m -140.91651,-7.94782 c -1.67549,-3.67729 -1.35583,-4.46179 0.45586,-1.11876 0.84602,1.56112 1.3511,3.02552 1.1224,3.25422 -0.2287,0.2287 -0.93892,-0.73225 -1.57826,-2.13546 z M 308,258.5 c 0,-0.825 0.45,-1.5 1,-1.5 0.55,0 1,0.675 1,1.5 0,0.825 -0.45,1.5 -1,1.5 -0.55,0 -1,-0.675 -1,-1.5 z m -50.67743,-2.35105 c -0.53265,-0.35692 -1.26292,-1.44666 -1.62283,-2.42163 -0.93792,-2.54077 -3.44727,-3.2004 -6.32205,-1.66186 -5.12066,2.74049 -12.38053,-4.86517 -12.37395,-12.96334 0.005,-5.74063 2.28213,-9.60248 8.6358,-14.6435 7.09897,-5.63235 6.91621,-5.14988 6.85371,-18.09242 -0.29492,-61.07339 -0.30376,-61.26762 -2.90713,-63.87099 -1.32763,-1.32763 -3.69013,-2.69476 -5.25,-3.03807 -5.55108,-1.22171 -5.95368,-1.45493 -4.30809,-2.49562 0.80958,-0.51199 1.07937,-0.93779 0.59953,-0.94621 -0.47985,-0.008 -0.28371,-0.7247 0.43586,-1.59173 0.93063,-1.12134 2.33722,-1.41957 4.87245,-1.03307 l 3.56413,0.54335 -4,-1.94071 c -2.2,-1.06738 -3.41957,-1.9525 -2.71016,-1.96693 1.86435,-0.0379 8.61869,3.55618 10.1495,5.40069 1.66081,2.00116 3.46051,2.00116 5.12132,0 2.57473,-3.10236 8.74257,-5.42691 14.3995,-5.42691 3.04691,0 5.53984,0.45 5.53984,1 0,0.55 -0.9,1 -2,1 -2.93136,0 -2.43877,1.66356 0.75,2.53291 2.4353,0.66393 2.06338,0.88191 -3.25,1.90477 -3.3,0.63527 -7.29889,2.01366 -8.88643,3.06308 -5.40978,3.57607 -5.61357,5.18346 -5.61357,44.27599 0,38.37461 -0.14909,37.2226 5.25,40.56627 3.08633,1.91138 3.40301,3.14682 1.33637,5.21347 -1.21818,1.21817 -1.93742,1.19478 -5.20193,-0.16922 C 252.89907,226.25968 245,231.45426 245,239.50437 c 0,4.7441 5.29184,10.49761 9.65,10.49189 6.03163,-0.008 12.35,-6.37571 12.35,-12.4466 0,-1.40231 0.45,-2.54966 1,-2.54966 0.55,0 1,0.45 1,1 0,0.55 0.49878,1 1.10841,1 0.68004,0 0.88915,-1.0628 0.54109,-2.75 -0.56672,-2.74708 -0.56582,-2.74681 0.84648,0.25 2.41916,5.13327 1.9082,11.0378 -1.24598,14.39853 -3.30434,3.52071 -11.57281,8.15813 -12.92743,7.25042 z m -18.61531,-19.38729 c -0.23919,-1.24391 -0.44398,-0.46166 -0.45508,1.73834 -0.0111,2.2 0.18461,3.21775 0.4349,2.26166 0.25029,-0.95609 0.25937,-2.75609 0.0202,-4 z m 1.6743,-4.3136 c 0.34149,-0.88992 0.17385,-1.29132 -0.39301,-0.94098 -0.5437,0.33602 -0.98855,1.0344 -0.98855,1.55194 0,1.43843 0.71677,1.12146 1.38156,-0.61096 z m 9.36844,-4.62074 c 2.70117,-0.81652 3.25,-1.47594 3.25,-3.90487 0,-3.98189 -1.31299,-3.6858 -6.80821,1.5353 -4.99623,4.74701 -4.78096,4.89036 3.55821,2.36957 z m 7.64301,-87.40911 C 258.25069,138.18315 258.18305,138 256.5,138 c -0.83333,0 -1.5,0.88889 -1.5,2 0,2.38425 1.53559,2.65261 2.39301,0.41821 z M 158.75,247.33772 c 0.6875,-0.27741 1.8125,-0.27741 2.5,0 0.6875,0.27741 0.125,0.50439 -1.25,0.50439 -1.375,0 -1.9375,-0.22698 -1.25,-0.50439 z m 218.32895,-0.92105 c 0.048,-1.16495 0.28494,-1.4019 0.60416,-0.60417 0.28887,0.72187 0.25335,1.58437 -0.0789,1.91667 -0.33229,0.33229 -0.56864,-0.25834 -0.52522,-1.3125 z M 134.25218,243.5 c 0.0111,-2.2 0.21589,-2.98225 0.45508,-1.73834 0.23919,1.24391 0.23011,3.04391 -0.0202,4 -0.25029,0.95609 -0.446,-0.0617 -0.4349,-2.26166 z m 29.73998,2.10575 c 1.38867,-1.76287 1.33327,-1.84381 -0.79897,-1.16707 -2.79997,0.88868 -6.74428,-1.44894 -7.74039,-4.58738 -0.54847,-1.72808 -0.003,-2.76974 2.53342,-4.84005 1.96679,-1.60522 3.09164,-3.33575 2.87304,-4.42006 -0.3322,-1.64778 -0.58521,-1.61783 -3.35926,0.39769 -2.3979,1.74222 -2.30513,1.56066 0.46223,-0.9046 3.87227,-3.44957 5.2312,-3.76106 7.01762,-1.60856 0.9684,1.16686 4.60439,1.53312 17.37244,1.75 L 198.5,230.5 v 3.5 3.5 l -15.4383,0.5 -15.43831,0.5 -0.8077,3.12424 c -0.44423,1.71833 -1.597,3.74333 -2.56169,4.5 -1.62,1.27065 -1.64,1.23104 -0.26184,-0.51849 z M 126.19495,242.5 c 0.0204,-1.65 0.2445,-2.20394 0.49804,-1.23097 0.25354,0.97297 0.23687,2.32297 -0.037,3 C 126.38206,244.94606 126.17462,244.15 126.195,242.5 Z M 346.5,244 c -0.33992,-0.55 -0.16803,-1 0.38197,-1 0.55,0 1.27811,0.45 1.61803,1 0.33992,0.55 0.16803,1 -0.38197,1 -0.55,0 -1.27811,-0.45 -1.61803,-1 z m -194.42105,-3.58333 c 0.048,-1.16495 0.28494,-1.4019 0.60416,-0.60417 0.28887,0.72187 0.25335,1.58437 -0.0789,1.91667 -0.3323,0.33229 -0.56864,-0.25834 -0.52522,-1.3125 z m 160.59459,-5.71266 c -0.4041,-1.53779 -0.4694,-3.22529 -0.14512,-3.75 0.78638,-1.27238 17.18272,-1.23042 17.97158,0.046 0.39019,0.63134 -2.07651,1.00565 -6.69098,1.01531 -8.00591,0.0168 -9.37379,0.49395 -9.98921,3.48469 -0.34535,1.67829 -0.52973,1.55025 -1.14627,-0.79599 z M 344,231.5 c 0,-0.825 0.7301,-1.5 1.62244,-1.5 1.3288,0 1.39713,0.27149 0.37756,1.5 -0.68469,0.825 -1.41479,1.5 -1.62244,1.5 C 344.1699,233 344,232.325 344,231.5 Z m 4,-4.5 c 0,-0.55 0.45,-1 1,-1 0.55,0 1,0.45 1,1 0,0.55 -0.45,1 -1,1 -0.55,0 -1,-0.45 -1,-1 z m -130.09672,-2.47293 c -1.8718,-1.30117 -4.75328,-3.83157 -6.40328,-5.62312 -3.24895,-3.52766 -30.59934,-25.53768 -33.95108,-27.32188 -3.66752,-1.95229 -3.11496,-6.05055 1.15551,-8.57018 3.56116,-2.10114 3.65113,-2.27873 1.82934,-3.61086 C 179.47995,178.63046 179.06375,178 179.60887,178 c 1.57891,0 3.39113,2.24066 3.39113,4.19285 0,1.06794 2.96784,3.98767 7.34007,7.22109 4.03703,2.98553 11.79953,9.41531 17.25,14.2884 5.45046,4.8731 12.04743,10.38489 14.65993,12.24844 5.67998,4.05163 6.31087,7.1907 1.90328,9.46996 -2.64128,1.36586 -3.09232,1.30136 -6.25,-0.89367 z m 67.76339,0.80626 c -1.58885,-1.58884 -0.4247,-5.16376 2.58333,-7.93304 1.7875,-1.64562 6.85,-5.89605 11.25,-9.44538 8.14433,-6.56976 8.02277,-4.81801 -0.25,3.60268 -1.7875,1.81946 -3.25,3.52768 -3.25,3.79605 0,0.26837 -1.8,2.30603 -4,4.52812 -2.2,2.2221 -4,4.50774 -4,5.07921 0,1.17063 -1.3238,1.38189 -2.33333,0.37236 z M 162.60874,206.17594 c -0.28012,-0.45323 0.46678,-0.79073 1.65977,-0.75 2.53463,0.0865 3.64896,-3.18069 1.57988,-4.63224 -1.0843,-0.76069 -1.0546,-0.86586 0.15161,-0.53696 1.95885,0.5341 2.48801,3.45032 0.96013,5.2913 -1.32463,1.59609 -3.55419,1.91781 -4.35139,0.6279 z m 182.73634,-1.71907 c -0.32569,-0.84872 -0.36872,-1.76657 -0.0956,-2.03966 0.27309,-0.2731 0.73656,0.42131 1.02992,1.54313 0.62315,2.38293 -0.0692,2.75089 -0.9343,0.49653 z M 349,202.5 c -0.71755,-0.86459 -0.81474,-1.5 -0.22943,-1.5 0.5585,0 1.27447,0.675 1.59106,1.5 0.31658,0.825 0.41982,1.5 0.22943,1.5 -0.19039,0 -0.90637,-0.675 -1.59106,-1.5 z m -126.04065,-7.72197 c -3.35929,-4.09314 -3.49333,-4.55895 -3.10161,-10.77803 0.82062,-13.02815 0.67393,-17.31092 -0.60774,-17.74415 -0.6935,-0.23441 -1.26354,0.39369 -1.28041,1.41082 -0.028,1.68519 -0.12309,1.67172 -1.17741,-0.16667 -0.63085,-1.1 -1.85466,-2.56902 -2.71959,-3.26448 -1.3374,-1.07538 -1.34826,-1.22493 -0.0726,-1 0.9691,0.17087 1.60935,-0.68149 1.80897,-2.40825 0.22224,-1.92256 1.13444,-2.9605 3.25,-3.69798 3.28962,-1.14677 3.8436,-2.74678 1.19103,-3.43996 -0.9625,-0.25153 0.31776,-0.50953 2.84501,-0.57333 5.62703,-0.14205 8.30499,2.27693 8.30499,7.50184 0,2.76975 -0.68088,4.05123 -3.2,6.02274 -2.81688,2.20454 -3.2,3.08578 -3.2,7.36047 0,4.65148 1.72077,7.99895 4.11187,7.99895 0.57044,0 0.84955,3.3888 0.67857,8.23894 -0.3512,9.96265 -1.66399,10.83496 -6.83109,4.53909 z M 229,196.5 c 0,-0.83333 -0.88889,-1.5 -2,-1.5 -1.99224,0 -2.60112,1.06554 -1.33333,2.33333 C 226.8846,198.55126 229,198.02241 229,196.5 Z m 53.66667,0.83333 c -1.21906,-1.21905 -0.68847,-2.27893 0.84606,-1.69007 0.83201,0.31927 2.18201,0.025 3,-0.65383 1.76894,-1.46808 2.01501,0.0828 0.28727,1.81057 -1.32773,1.32773 -3.10909,1.55758 -4.13333,0.53333 z m -65.58772,-13.91666 c 0.048,-1.16495 0.28494,-1.4019 0.60416,-0.60417 0.28887,0.72187 0.25335,1.58437 -0.0789,1.91667 -0.3323,0.33229 -0.56864,-0.25834 -0.52522,-1.3125 z M 281.5,184 c -0.33992,-0.55 -0.14148,-1 0.44098,-1 0.58246,0 1.05902,0.45 1.05902,1 0,0.55 -0.19844,1 -0.44098,1 -0.24254,0 -0.7191,-0.45 -1.05902,-1 z m 47.74499,-3.25 c 0.22642,-0.6875 1.47989,-1.40572 2.78549,-1.59604 2.07253,-0.30212 2.2057,-0.14347 1.04923,1.25 -1.5661,1.88703 -4.42724,2.14522 -3.83472,0.34604 z M 196.65267,168.31933 c -0.37437,-0.37436 0.50908,-1.9225 1.96323,-3.4403 1.63587,-1.70749 2.4081,-3.37409 2.02545,-4.37127 -0.35956,-0.937 -0.20463,-1.35589 0.3701,-1.00068 0.5437,0.33602 0.98855,1.4844 0.98855,2.55194 0,1.16985 0.69526,1.95353 1.75,1.97258 1.39231,0.0251 1.17651,0.53613 -1.05576,2.5 -2.81537,2.47685 -4.77314,3.05616 -6.04157,1.78773 z M 292.03544,164.75 c 0.0195,-1.2375 0.63946,-3.34032 1.37772,-4.67292 l 1.3423,-2.42292 0.72748,2.29208 c 0.73349,2.31103 -1.04957,7.05376 -2.65192,7.05376 -0.45706,0 -0.81507,-1.0125 -0.79558,-2.25 z M 310,165.58179 c 0,-0.78002 -0.27941,-2.24252 -0.62092,-3.25 -0.40332,-1.18986 0.29755,-0.81358 2,1.07375 C 314.52453,166.89257 314.54309,167 312,167 c -1.1,0 -2,-0.6382 -2,-1.41821 z m -118,-0.29268 c 0,-0.57432 0.7875,-1.66182 1.75,-2.41667 1.61876,-1.26951 1.63998,-1.22245 0.28297,0.62756 -0.80687,1.1 -1.59437,2.1875 -1.75,2.41667 C 192.12734,166.14583 192,165.86343 192,165.28911 Z M 180,158.5 c 1.86578,-1.925 3.61733,-3.5 3.89233,-3.5 0.275,0 -1.02655,1.575 -2.89233,3.5 -1.86578,1.925 -3.61733,3.5 -3.89233,3.5 -0.275,0 1.02655,-1.575 2.89233,-3.5 z m 100,0.93426 C 280,157.04425 281.90955,154 283.40872,154 c 1.06296,0 1.00428,0.71347 -0.28519,3.46743 C 281.4011,161.1461 280,162.02834 280,159.43426 Z M 171,155.5 c 1.29175,-1.375 2.57363,-2.5 2.84863,-2.5 0.275,0 -0.55688,1.125 -1.84863,2.5 -1.29175,1.375 -2.57363,2.5 -2.84863,2.5 -0.275,0 0.55688,-1.125 1.84863,-2.5 z M 304.5,139 c 0.33992,-0.55 1.51803,-1 2.61803,-1 1.1,0 1.72189,0.45 1.38197,1 -0.33992,0.55 -1.51803,1 -2.61803,1 -1.1,0 -1.72189,-0.45 -1.38197,-1 z m -66.75,-9.66228 c 0.6875,-0.27741 1.8125,-0.27741 2.5,0 0.6875,0.27741 0.125,0.50439 -1.25,0.50439 -1.375,0 -1.9375,-0.22698 -1.25,-0.50439 z"
         id="path5" />
      <path
         style="fill:#dc9d27"
         d="m 282.33561,375.38576 c 0.35759,-3.78717 0.65337,-21.36045 0.65728,-39.05173 l 0.007,-32.16597 4.21856,-3.33403 4.21856,-3.33403 h 29.3285 c 28.92938,0 29.29724,0.0258 27.03144,1.89522 l -2.29706,1.89523 4.32762,-0.56048 c 2.38018,-0.30826 5.30518,-1.38611 6.5,-2.39522 L 358.5,296.5 l -1.84628,2.18513 c -1.01546,1.20182 -3.82305,3.11432 -6.2391,4.25 C 346.33481,304.85287 344.204,305 320.5109,305 c -24.17757,0 -25.61543,0.10453 -27.5109,2 -1.91642,1.91642 -2,3.33333 -2,33.90539 v 31.90538 l -3.61098,4.34462 c -5.28357,6.35702 -5.80356,6.17493 -5.05341,-1.76963 z m -28.89107,-5.47549 c -0.40938,-0.66239 -0.96575,-26.13153 -1.23637,-56.59807 l -0.49205,-55.39372 -5.35989,-3.55769 c -2.94794,-1.95673 -5.66532,-4.05189 -6.03862,-4.65591 -0.37331,-0.60402 0.70948,-0.10971 2.4062,1.09845 3.52122,2.50734 4.56361,2.65863 7.15729,1.03885 2.24247,-1.40044 4.92682,-0.53076 5.81864,1.88514 0.35991,0.97497 1.09018,2.06471 1.62283,2.42163 1.08427,0.72655 8.84139,-3.266 12.67743,-6.52501 l 2.5,-2.12394 -2.5,2.86965 c -1.375,1.57831 -4.18375,3.94409 -6.24168,5.25729 l -3.74167,2.38764 -0.25833,56.24271 L 259.5,370.5 l -2.65556,0.30731 c -1.46056,0.16902 -2.99052,-0.23465 -3.3999,-0.89704 z M 258.9011,308.75 c 0.0889,-40.21896 -0.3306,-48.50832 -2.20134,-43.5 -0.31211,0.83558 -0.67128,0.66982 -1.08333,-0.5 -0.33904,-0.9625 -0.95393,-2.5375 -1.36643,-3.5 -0.4125,-0.9625 -0.88875,14.9 -1.05834,35.25 -0.31334,37.60032 0.44018,61.69229 1.81406,58 0.5414,-1.45503 0.97305,-0.36508 1.58411,4 l 0.83993,6 0.68622,-5.5 c 0.37743,-3.025 0.73073,-25.6375 0.78512,-50.25 z M 217,306 c -2.32726,-0.74532 -2.34861,-0.80753 -0.30902,-0.90032 1.20504,-0.0548 2.4691,0.35032 2.80902,0.90032 0.33992,0.55 0.47898,0.95514 0.30902,0.90032 C 219.63906,306.8455 218.375,306.44035 217,306 Z m -28.71349,-0.74008 c 3.18258,-0.19905 8.13258,-0.1972 11,0.004 2.86742,0.20131 0.26349,0.36417 -5.78651,0.36191 -6.05,-0.002 -8.39607,-0.16696 -5.21349,-0.36601 z m 21.44119,-7.98165 c 1.77523,-0.22091 4.92523,-0.22454 7,-0.008 2.07476,0.21648 0.6223,0.39722 -3.2277,0.40166 -3.85,0.004 -5.54754,-0.17268 -3.7723,-0.39359 z m 145.33668,-4.40651 c 2.51041,-2.40447 5.43541,-6.50757 6.5,-9.11801 1.06459,-2.61044 2.29223,-4.74794 2.72808,-4.75 0.43586,-0.002 2.123,-2.81625 3.74921,-6.25375 3.77683,-7.98348 3.77265,-6.44919 -0.01,3.67618 -3.0056,8.04536 -7.73127,14.15156 -14.53167,18.77687 -1.95064,1.32673 -1.40344,0.51127 1.56438,-2.33129 z m -20.85965,-10.12507 c -3.53477,-4.25915 -2.52522,-11.78852 1.57095,-11.71628 1.61641,0.0285 1.6148,0.0942 -0.0257,1.04969 -0.9625,0.5606 -1.75,1.61944 -1.75,2.35296 0,1.90295 3.99285,2.74915 4.66816,0.98932 0.65867,-1.71646 3.92871,-1.88367 4.93687,-0.25244 0.48123,0.77864 0.18488,0.96342 -0.88605,0.55246 -1.29655,-0.49753 -1.66834,0.19787 -1.91405,3.58007 -0.267,3.67541 -0.62654,4.23492 -2.89053,4.49809 -1.42207,0.1653 -3.09143,-0.30894 -3.70967,-1.05387 z M 223.75,274.33772 c 0.6875,-0.27741 1.8125,-0.27741 2.5,0 0.6875,0.27741 0.125,0.50439 -1.25,0.50439 -1.375,0 -1.9375,-0.22698 -1.25,-0.50439 z m 56.70455,-2.79227 C 275.66818,266.75909 278.62195,260 285.5,260 c 5.12343,0 7.89079,3.09904 7.00422,7.84371 -0.92406,4.94536 -2.13811,6.15629 -6.17212,6.15629 -2.30097,0 -4.22759,-0.80458 -5.87755,-2.45455 z m 2.39515,-8.29048 c 1.61516,-1.36818 2.09519,-2.24698 1.22904,-2.25 -2.22132,-0.008 -5.08695,3.08725 -4.99979,5.40002 0.0533,1.41364 0.24831,1.60716 0.5997,0.59501 0.28642,-0.825 1.71339,-2.51026 3.17105,-3.74503 z m 35.10082,3.76272 c -6.8899,-4.92021 -8.38532,-6.44864 -8.09746,-8.27619 0.89668,-5.69282 6.36729,-5.06457 13.66736,1.56958 l 5.84419,5.31108 -1.48178,3.71511 -1.48179,3.7151 z M 232.15789,268 c 0,-1.375 0.22698,-1.9375 0.50439,-1.25 0.27741,0.6875 0.27741,1.8125 0,2.5 -0.27741,0.6875 -0.50439,0.125 -0.50439,-1.25 z m 139.91669,-5 c -0.004,-1.44112 2.8174,-7.16586 2.88998,-5.86481 0.0195,0.34935 -0.62195,2.14935 -1.42542,4 -0.80347,1.85065 -1.46252,2.68981 -1.46456,1.86481 z m 5.47815,-16 c 0.49339,-5.53203 -1.74744,-13.787 -5.62853,-20.73485 -2.0776,-3.71929 -2.9242,-6.59869 -2.9242,-9.94563 0,-3.26306 -1.72223,-9.3373 -5.60401,-19.76515 -8.0024,-21.49732 -7.72695,-21.04021 -16.30069,-27.051 -4.17742,-2.92866 -9.69289,-7.30772 -12.25662,-9.73124 -8.31499,-7.86029 -14.78573,-11.68699 -21.86189,-12.92879 -3.56223,-0.62514 -7.41974,-1.75181 -8.57223,-2.50372 -4.97594,-3.24638 -14.78101,-6.19485 -23.10446,-6.94771 -6.96278,-0.62978 -8.06936,-0.92589 -5.3001,-1.41823 l 3.5,-0.62226 -2.75,-0.78412 C 273.55869,133.65735 273.07452,132 276,132 c 4.27876,0 1.72985,-2.00956 -2.75,-2.1681 -4.47056,-0.15822 -4.52483,-0.19145 -0.92246,-0.56499 6.02398,-0.62464 17.5686,1.55487 24.67246,4.65792 3.575,1.5616 9.54022,3.30245 13.25605,3.86855 5.69737,0.86798 8.04789,1.90903 15,6.64353 9.95136,6.77703 16.74395,12.79746 16.74395,14.84055 0,0.82815 1.03199,1.76474 2.29332,2.08131 3.30034,0.82833 13.75151,10.59877 17.99341,16.82142 3.99297,5.85749 7.23766,15.02922 11.35494,32.09686 1.48904,6.17262 3.26607,11.89795 3.94896,12.72295 3.38846,4.09364 6.43998,17.29783 5.62025,24.31937 -0.60187,5.1555 -2.21088,4.60214 -2.21088,-0.76035 0,-5.15601 -1.96337,-7.40174 -2.07029,-2.36804 -0.0387,1.81996 -0.45459,4.20902 -0.9243,5.30902 -0.58577,1.3718 -0.72796,0.58656 -0.45268,-2.5 z M 308.5,139 c 0.33992,-0.55 -0.28197,-1 -1.38197,-1 -1.1,0 -2.27811,0.45 -2.61803,1 -0.33992,0.55 0.28197,1 1.38197,1 1.1,0 2.27811,-0.45 2.61803,-1 z m -58.05887,109.42584 c -1.06762,-0.86578 -1.28141,-1.22914 -0.4751,-0.80746 0.80632,0.42168 3.05632,1.0783 5,1.45915 3.51505,0.68876 3.51759,0.69309 0.4751,0.80747 -1.68238,0.0633 -3.93238,-0.59337 -5,-1.45916 z M 262.5,246 c 0.99549,-1.1 2.03498,-2 2.30998,-2 0.275,0 -0.31449,0.9 -1.30998,2 -0.99549,1.1 -2.03498,2 -2.30998,2 -0.275,0 0.31449,-0.9 1.30998,-2 z m 84.94113,-0.50245 c -1.88192,-1.45663 -1.88274,-1.48195 -0.0271,-0.83006 1.32306,0.46478 1.69079,0.31115 1.19099,-0.49755 C 348.20734,243.52647 347.23352,243 346.44098,243 345.64844,243 345,242.3801 345,241.62244 345,238.19796 341.97182,237.5 327.11415,237.5 c -13.82077,0 -14.58805,-0.10344 -14.83586,-2 l -0.26131,-2 0.92122,2 c 0.89883,1.95137 0.92294,1.94789 0.99151,-0.14301 C 314.02149,232.55863 315.7207,232 324.1408,232 c 4.39685,0 6.74867,-0.36983 6.3592,-1 -0.38973,-0.63059 1.98962,-1 6.44098,-1 5.84479,0 7.05902,0.27908 7.05902,1.62244 0,1.35085 0.25902,1.40748 1.54733,0.33828 0.85104,-0.7063 1.12584,-1.5489 0.61067,-1.87245 -1.16365,-0.73083 0.80214,-2.58827 2.73924,-2.58827 1.64478,0 7.55183,5.33478 8.30454,7.5 0.2868,0.825 0.20516,2.38777 -0.18141,3.47282 -0.66681,1.87163 -0.8323,1.83316 -3.22629,-0.75 -3.03829,-3.27837 -4.3548,-3.41214 -5.86214,-0.59565 -1.25566,2.34622 0.0195,3.82865 3.31806,3.85752 0.9625,0.008 1.75,0.69031 1.75,1.51531 0,1.80819 1.16679,1.93321 2.8,0.3 0.93333,-0.93333 1.2,-0.73489 1.2,0.89301 0,3.4394 -5.98655,4.56955 -9.55887,1.80454 z M 273.123,241.5 c -0.11726,-2.2 -0.84942,-5.35 -1.62702,-7 -1.4123,-2.99681 -1.4132,-2.99708 -0.84648,-0.25 0.34806,1.6872 0.13895,2.75 -0.54109,2.75 C 269.49878,237 269,236.55 269,236 c 0,-2.69477 -2.01761,-0.56513 -2.13164,2.25 l -0.13164,3.25 -0.61836,-3 c -0.79015,-3.83343 -2.01007,-5.70502 -5.09087,-7.81036 -2.72859,-1.86464 -2.02154,-2.29201 1.06186,-0.64182 3.01088,1.61137 5.75646,-1.43975 3.96111,-4.40192 -0.95445,-1.57475 -0.47358,-1.3687 1.80671,0.77418 3.92102,3.68475 6.4027,10.08102 5.88149,15.15894 L 273.33621,245.5 Z M 198.5,234 c 0,-2.09496 0.3375,-3.60043 0.75,-3.34549 0.4125,0.25494 0.75,1.76041 0.75,3.34549 0,1.58508 -0.3375,3.09055 -0.75,3.34549 -0.4125,0.25494 -0.75,-1.25053 -0.75,-3.34549 z m 48.5,-1.37756 c 0,-0.20765 0.7875,-0.99515 1.75,-1.75 1.58606,-1.24387 1.62143,-1.2085 0.37756,0.37756 C 247.82119,232.91575 247,233.44548 247,232.62244 Z m 7.75,-4.28472 c 0.6875,-0.27741 1.8125,-0.27741 2.5,0 0.6875,0.27741 0.125,0.50439 -1.25,0.50439 -1.375,0 -1.9375,-0.22698 -1.25,-0.50439 z M 222,226.60699 c 0,-0.21616 0.69837,-0.661 1.55194,-0.98855 0.88992,-0.34149 1.29132,-0.17385 0.94098,0.39301 C 223.90566,226.96166 222,227.4169 222,226.60699 Z m 65.73054,-1.34718 c 0.36728,-0.9571 2.37815,-3.46775 4.46862,-5.57921 2.09046,-2.11146 3.80084,-4.05859 3.80084,-4.32696 0,-0.26837 1.62708,-2.02248 3.61573,-3.89802 2.22211,-2.09572 3.3943,-3.98711 3.04123,-4.90719 -0.39163,-1.02056 2.19768,-3.75738 8.13427,-8.59766 4.78982,-3.90529 10.67299,-8.75433 13.07369,-10.77565 2.40071,-2.02132 5.55071,-4.40852 7,-5.30489 1.4493,-0.89637 2.53796,-2.08772 2.41927,-2.64744 -0.32982,-1.55527 3.37008,-0.2623 5.27605,1.84377 1.47846,1.63368 2.36082,6.52659 1.31476,7.2907 -0.20625,0.15066 -3.3,2.23501 -6.875,4.63189 -9.60705,6.44111 -29.81124,23.02042 -35.20684,28.89028 -3.66341,3.98543 -5.37449,5.12057 -7.71861,5.12057 -2.45105,0 -2.88746,-0.32399 -2.34401,-1.74019 z M 305.5,204 c 0.99549,-1.1 1.58498,-2 1.30998,-2 -0.275,0 -1.31449,0.9 -2.30998,2 -0.99549,1.1 -1.58498,2 -1.30998,2 0.275,0 1.31449,-0.9 2.30998,-2 z m -44.05887,18.44483 c -1.86402,-1.49339 -1.85176,-1.51185 0.30887,-0.46481 1.2375,0.59969 2.25,1.29951 2.25,1.55516 0,0.76522 -0.51861,0.54424 -2.55887,-1.09035 z m 22.63782,-0.0282 c 0.048,-1.16495 0.28494,-1.4019 0.60416,-0.60417 0.28887,0.72187 0.25335,1.58437 -0.0789,1.91667 -0.33229,0.33229 -0.56864,-0.25834 -0.52522,-1.3125 z M 259.45255,183.5 c 3.1e-4,-20.35 0.13365,-28.53307 0.29631,-18.1846 0.16266,10.34848 0.16241,26.99848 -5.6e-4,37 -0.16297,10.00153 -0.29606,1.5346 -0.29575,-18.8154 z M 287,217.5 c 1.29175,-1.375 2.57363,-2.5 2.84863,-2.5 0.275,0 -0.55688,1.125 -1.84863,2.5 -1.29175,1.375 -2.57363,2.5 -2.84863,2.5 -0.275,0 0.55688,-1.125 1.84863,-2.5 z m -82.12756,-4.25 c -1.24387,-1.58606 -1.2085,-1.62143 0.37756,-0.37756 0.9625,0.75485 1.75,1.54235 1.75,1.75 0,0.82304 -0.82119,0.29331 -2.12756,-1.37244 z M 292,213.62244 c 0,-0.20765 0.7875,-0.99515 1.75,-1.75 1.58606,-1.24387 1.62143,-1.2085 0.37756,0.37756 C 292.82119,213.91575 292,214.44548 292,213.62244 Z M 252.34941,203 c 0,-4.675 0.17226,-6.5875 0.3828,-4.25 0.21053,2.3375 0.21053,6.1625 0,8.5 -0.21054,2.3375 -0.3828,0.425 -0.3828,-4.25 z M 297.5,209 c 0.99549,-1.1 2.03498,-2 2.30998,-2 0.275,0 -0.31449,0.9 -1.30998,2 -0.99549,1.1 -2.03498,2 -2.30998,2 -0.275,0 0.31449,-0.9 1.30998,-2 z m -91.62756,-6.75 c -1.24387,-1.58606 -1.2085,-1.62143 0.37756,-0.37756 0.9625,0.75485 1.75,1.54235 1.75,1.75 0,0.82304 -0.82119,0.29331 -2.12756,-1.37244 z M 286.8,196.8 c 1.61901,-1.61901 1.53583,-3.32361 -0.0961,-1.96923 -0.71284,0.59161 -2.28784,1.00095 -3.5,0.90964 -2.00162,-0.15078 -2.2039,-0.7026 -2.2039,-6.01223 0,-4.0904 0.3393,-5.63652 1.12973,-5.148 0.67345,0.41621 0.95112,0.16237 0.6875,-0.62848 -0.24323,-0.72969 0.37339,-2.14233 1.37027,-3.1392 1.33164,-1.33164 1.81082,-3.338 1.80618,-7.5625 -0.006,-5.33731 -0.22119,-5.87226 -3,-7.45349 -2.78789,-1.58639 -3.96797,-4.19682 -2.24368,-4.96318 0.4125,-0.18333 1.62882,-2.05882 2.70293,-4.16774 1.75922,-3.45408 2.24866,-3.77527 4.93438,-3.23813 5.10112,1.02023 6.82019,3.2706 5.07559,6.64429 -1.60913,3.11172 -1.94665,6.92825 -0.61271,6.92825 0.46761,0 0.79835,4.8375 0.73498,10.75 -0.1121,10.45795 -0.20504,10.87905 -3.42105,15.5 -1.8182,2.6125 -3.58893,4.75 -3.93497,4.75 -0.34603,0 -0.0892,-0.54 0.57085,-1.2 z M 230.29966,188 c 0,-3.025 0.18747,-4.2625 0.41659,-2.75 0.22913,1.5125 0.22913,3.9875 0,5.5 -0.22912,1.5125 -0.41659,0.275 -0.41659,-2.75 z m -45.89467,-3.25 -1.90499,-2.25 2.25,1.90499 c 2.11444,1.79022 2.70524,2.59501 1.90499,2.59501 -0.18976,0 -1.20226,-1.0125 -2.25,-2.25 z m 129.19986,-16.52721 c -1.25299,-0.28122 -1.50038,-0.66932 -0.73011,-1.14538 0.81096,-0.5012 0.41144,-1.59706 -1.31454,-3.6057 -3.07785,-3.58192 -2.79916,-3.88241 2.32185,-2.50347 4.44517,1.19696 6.9333,4.15948 4.84694,5.77105 -2.09102,1.61517 -3.15937,1.92446 -5.12414,1.4835 z M 202.01531,162.25 c 0.009,-0.99868 0.33573,-1.32068 0.76164,-0.75 0.41047,0.55 1.15358,1.3375 1.65135,1.75 0.49777,0.4125 0.15503,0.75 -0.76163,0.75 -0.92647,0 -1.65987,-0.77721 -1.65136,-1.75 z m 46.85713,-20 c -1.24387,-1.58606 -1.2085,-1.62143 0.37756,-0.37756 1.66575,1.30637 2.19548,2.12756 1.37244,2.12756 -0.20765,0 -0.99515,-0.7875 -1.75,-1.75 z M 261,142.62244 c 0,-0.20765 0.7875,-0.99515 1.75,-1.75 1.58606,-1.24387 1.62143,-1.2085 0.37756,0.37756 C 261.82119,142.91575 261,143.44548 261,142.62244 Z m 7.8125,-5.30555 c 0.72187,-0.28887 1.58438,-0.25335 1.91667,0.0789 0.33229,0.33229 -0.25834,0.56864 -1.3125,0.52522 -1.16495,-0.048 -1.4019,-0.28494 -0.60417,-0.60416 z"
         id="path4" />
      <path
         style="fill:#9c712d"
         d="M 224.56852,379.425 220,373.81666 219.9847,342.15833 c -0.009,-18.15824 -0.4189,-32.29798 -0.96174,-33.15833 -0.79039,-1.25271 -5.44514,-1.58243 -28.23468,-2 -26.39613,-0.48365 -27.45031,-0.57974 -32.24479,-2.93918 C 148.08811,298.91557 144.23304,294.00308 135.73807,275 c -9.98653,-22.33967 -10.09641,-22.6878 -10.10031,-32 -0.003,-7.68879 0.35613,-9.29761 3.76532,-16.85755 2.07288,-4.59665 5.26257,-14.28822 7.0882,-21.53681 5.63311,-22.3661 10.9101,-32.24597 21.15128,-39.60064 2.57604,-1.84997 7.42279,-5.82057 10.77057,-8.82356 7.37471,-6.61519 18.9828,-15.39367 23.09964,-17.46882 1.65703,-0.83525 5.93203,-2.07081 9.5,-2.7457 3.56798,-0.67489 9.63723,-2.60346 13.48723,-4.28572 12.52226,-5.47159 28.48515,-5.01094 37.72073,1.08854 l 3.72074,2.4573 3.00386,-2.52758 c 4.69921,-3.95413 9.19947,-4.97071 19.90936,-4.49741 7.72374,0.34134 10.94026,0.98441 16.14531,3.22788 3.575,1.54089 10.1,3.45672 14.5,4.2574 12.4811,2.27123 17.64904,5.82316 46.28626,31.81267 9.76273,8.8601 13.73726,16.80765 19.17304,38.33878 1.64553,6.51795 4.69036,15.40815 6.76628,19.75602 3.50073,7.33199 3.77442,8.5578 3.77442,16.9052 0,10.00196 0.23798,9.23263 -9.82187,31.75152 -8.36406,18.72288 -13.46492,25.31322 -23.13182,29.88649 l -6.04631,2.86041 -25.6933,7.9e-4 c -25.41668,7.8e-4 -25.71005,0.0247 -27.25,2.2233 -1.32976,1.8985 -1.5567,6.86142 -1.5567,34.04284 v 31.82033 l -4.63684,4.95716 c -2.55026,2.72644 -5.13776,4.95742 -5.75,4.95774 -1.44559,7.5e-4 -0.95984,-78.48428 0.50265,-81.21698 0.54348,-1.0155 2.83227,-3.18224 5.08621,-4.81498 L 291.30008,296 h 27.65418 27.65418 l 4.53926,-2.87872 c 5.6748,-3.59885 6.91003,-5.63144 16.26425,-26.76301 9.69934,-21.91124 10.00719,-28.53171 1.89789,-40.81541 -1.97076,-2.98525 -2.57232,-5.08893 -2.44928,-8.56528 0.18718,-5.28847 -9.09806,-32.69364 -12.87345,-37.99568 C 351.80561,175.91826 342.51477,168 341.10157,168 c -0.39536,0 -4.69164,-3.578 -9.54728,-7.9511 -9.59744,-8.64369 -13.15232,-10.743 -20.34646,-12.01544 -2.58931,-0.45798 -8.50376,-2.51993 -13.14323,-4.58212 -14.1707,-6.2987 -30.00627,-6.15483 -35.09849,0.31888 C 261.0936,146.15073 261,147.99178 261,182.44413 v 36.17442 l 5.61749,4.84978 c 6.63877,5.73151 8.38251,9.36454 8.38251,17.46476 0,6.75156 -2.76048,10.9968 -10.2077,15.69802 L 261,259.02509 V 316.01254 373 h -3.06574 c -1.68616,0 -3.93616,-0.46583 -5,-1.03518 C 251.05741,370.96036 251,369.27436 251,315.16167 v -55.76795 l -6.094,-4.29761 c -6.39186,-4.50766 -9.84058,-9.87341 -9.88404,-15.37823 -0.0493,-6.24864 5.39431,-14.31717 12.72804,-18.86541 l 3.25,-2.01559 -0.11831,-34.16844 c -0.0651,-18.79264 -0.40407,-35.50152 -0.75331,-37.13084 -0.39365,-1.83647 -1.96398,-3.86548 -4.13169,-5.3385 -3.24334,-2.20396 -4.25747,-2.34863 -13.99669,-1.9968 -9.47546,0.34231 -11.2806,0.73073 -18.5,3.98074 -4.4,1.98078 -10.02709,3.88593 -12.50464,4.23367 -6.07235,0.85228 -13.62167,5.33721 -21.7522,12.92261 -3.70874,3.46009 -8.54316,7.37898 -10.74316,8.70865 -5.49319,3.32007 -11.33635,8.73489 -13.09431,12.1344 -3.89115,7.52465 -10.70287,29.60235 -10.8967,35.31763 -0.16734,4.9344 -0.84449,7.04234 -3.81282,11.86907 -6.78009,11.02496 -6.36956,15.72085 3.18689,36.45391 3.72077,8.07236 7.23887,15.81421 7.81799,17.20412 1.65708,3.97702 5.9653,8.58669 9.66676,10.34315 2.78115,1.31974 8.4702,1.6959 31.63044,2.09139 l 28.23937,0.48222 3.63119,2.6773 c 6.47299,4.77257 6.13119,2.23545 6.13119,45.51095 0,23.47187 -0.38145,39.98561 -0.93148,40.32554 -0.51231,0.31663 -2.98731,-1.94806 -5.5,-5.03265 z m 4.42955,-36.675 -0.002,-39.25 -4.76871,-3.25 -4.76872,-3.25 h -26.91363 c -25.25527,0 -27.17962,-0.12877 -31.23056,-2.08979 -5.44834,-2.6375 -9.57137,-7.61325 -12.72134,-15.35237 C 147.23706,276.22603 143.5999,268.1 140.5106,261.5 c -5.39504,-11.52597 -5.60448,-12.28023 -5.3022,-19.09397 0.27249,-6.14231 0.81244,-7.90035 4.025,-13.1051 3.16805,-5.13265 3.69052,-6.79958 3.57502,-11.40604 -0.0799,-3.18594 0.50271,-6.62324 1.42286,-8.39489 0.85696,-1.65 3.01532,-7.725 4.79636,-13.5 5.14076,-16.6689 6.60114,-18.78795 18.47236,-26.80378 3.3,-2.22826 9.27345,-7.00542 13.27433,-10.61589 8.42928,-7.60675 12.4305,-9.85183 20.72567,-11.62913 3.3,-0.70705 8.12994,-2.33907 10.7332,-3.6267 13.99461,-6.92209 30.9893,-7.0882 37.0168,-0.36181 l 2.75,3.06886 -0.004,36.73423 -0.004,36.73422 -5.51793,4.26158 c -7.10893,5.49033 -9.46593,9.37782 -9.47071,15.62039 -0.005,6.38337 2.58654,10.48784 9.53265,15.0984 l 5.46361,3.62654 0.12201,42.19654 c 0.0671,23.2081 0.40461,48.49655 0.75,56.19655 l 0.62799,14 h 3 3 l 0.25832,-56.2324 0.25832,-56.23239 2.74168,-1.69975 c 4.20806,-2.60885 8.271,-6.54981 9.83096,-9.5358 3.57418,-6.84153 0.0973,-16.95293 -7.83928,-22.7978 L 260,220.50372 v -37.88378 -37.88379 l 3.4732,-3.27565 c 4.17275,-3.93541 8.81468,-4.91659 18.82726,-3.97961 7.27313,0.68062 15.28229,3.10268 21.69954,6.56217 1.925,1.03776 6.2,2.35696 9.5,2.93155 6.56489,1.14308 13.25348,5.15445 21.33868,12.79752 2.56373,2.42352 8.0792,6.80258 12.25662,9.73124 8.57374,6.01079 8.29829,5.55368 16.30069,27.051 3.88178,10.42785 5.60401,16.50209 5.60401,19.76515 0,3.34171 0.84789,6.23215 2.91747,9.94563 7.37247,13.22851 7.20344,18.0165 -1.29255,36.61431 -2.91973,6.3913 -5.90598,13.19554 -6.63613,15.12054 -3.51633,9.27066 -5.93035,12.75399 -11.16562,16.11154 L 347.5397,297.5 h -28.05196 -28.05196 l -4.21789,3.33403 -4.21789,3.33403 -0.007,32.16597 c -0.004,17.69128 -0.29969,35.26456 -0.65728,39.05173 -0.75015,7.94456 -0.23016,8.12665 5.05341,1.76963 L 291,372.81077 v -31.90538 c 0,-30.57206 0.0836,-31.98897 2,-33.90539 1.89547,-1.89547 3.33333,-2 27.5109,-2 23.6931,0 25.82391,-0.14713 29.90372,-2.06487 2.41605,-1.13568 5.22364,-3.04818 6.2391,-4.25 L 358.5,296.5 l -2.17238,1.83475 c -1.19482,1.00911 -4.11982,2.07277 -6.5,2.3637 l -4.32762,0.52895 6,-4.45869 c 9.72444,-7.22637 13.72144,-12.26939 16.85718,-21.26871 1.53315,-4.4 4.55498,-12.57859 6.71518,-18.17464 2.1602,-5.59605 3.92764,-11.58511 3.92764,-13.30902 0,-1.83494 0.41458,-2.87815 1,-2.51634 0.55,0.33992 1,2.61648 1,5.05902 0,5.36249 1.60901,5.91585 2.21088,0.76035 0.81973,-7.02154 -2.23179,-20.22573 -5.62025,-24.31937 -0.68289,-0.825 -2.45992,-6.55033 -3.94896,-12.72295 -4.11728,-17.06764 -7.36197,-26.23937 -11.35494,-32.09686 -4.2419,-6.22265 -14.69307,-15.99309 -17.99341,-16.82142 C 343.03199,161.0422 342,160.10561 342,159.27746 c 0,-2.04309 -6.79259,-8.06352 -16.74395,-14.84055 -6.95211,-4.7345 -9.30263,-5.77555 -15,-6.64353 -3.71583,-0.5661 -9.77688,-2.35383 -13.469,-3.97272 -14.23095,-6.23988 -30.04154,-6.04816 -37.44721,0.4541 l -3.32769,2.92176 -4.69691,-3.1111 c -6.53394,-4.32791 -11.37502,-5.4225 -21.03125,-4.75528 -5.95074,0.41118 -10.08646,1.37656 -15,3.50137 -3.7312,1.61351 -10.23752,3.68463 -14.45851,4.60249 -8.81554,1.91695 -15.46072,5.80677 -26.75582,15.66179 -4.03702,3.52232 -10.36775,8.7352 -14.06828,11.58419 -11.58175,8.91662 -16.18355,16.94167 -21.40043,37.32002 -3.19672,12.48713 -5.40613,19.23742 -9.16458,28 -5.32024,12.40381 -4.13751,18.94366 8.26599,45.70648 8.54491,18.43719 11.39735,22.02213 21.22942,26.68112 L 165.5,305.5 l 26.34394,0.0182 c 24.82618,0.0172 26.42495,0.12901 27.75,1.94113 1.1362,1.55384 1.40606,7.84859 1.40606,32.79751 0,21.43256 0.35349,31.5426 1.15589,33.05887 1.35774,2.56569 5.91116,8.68426 6.4628,8.68426 0.20972,0 0.38044,-17.6625 0.37938,-39.25 z m 21.112,-95.14551 c -5.8998,-3.27 -6.6828,-10.23176 -1.71007,-15.20449 6.57686,-6.57686 17.48254,-2.57294 17.5682,6.45 0.0694,7.30698 -9.21868,12.43446 -15.85813,8.75449 z m 10.86426,-2.23634 c 6.0973,-5.13055 2.22753,-14.70148 -5.94418,-14.70148 -8.62136,0 -11.48477,12.48702 -3.6458,15.89895 4.49199,1.95515 6.07877,1.75702 9.58998,-1.19747 z m -93.09082,38.73861 c -5.27763,-4.27357 -1.77892,-14.1534 5.49537,-15.51806 2.0683,-0.38801 4.97166,-2.42111 8.16531,-5.71781 C 187.06003,257.17709 194.47731,252 197.11906,252 c 2.15656,0 7.88094,4.71858 7.88094,6.49622 0,1.44478 -7.62206,8.6092 -15.54742,14.61394 -2.77609,2.10333 -6.0408,5.5917 -7.25492,7.75194 -1.21412,2.16023 -2.91708,4.19999 -3.78436,4.5328 -3.11619,1.19579 -8.23569,0.56951 -10.52979,-1.28814 z m 10.34627,-1.07287 c 1.37473,-1.08135 3.01996,-3.22261 3.65608,-4.75833 0.63612,-1.53573 3.05953,-4.01169 5.38536,-5.50215 2.32583,-1.49045 7.0656,-5.25681 10.53282,-8.36968 l 6.30405,-5.65977 -2.22836,-2.37198 c -4.33576,-4.61521 -8.00455,-3.20947 -19.0325,7.29254 C 178.66,267.65205 175.34846,270 173.91168,270 c -6.09439,0 -9.58695,10.01276 -4.68917,13.4433 2.99257,2.09607 5.9956,1.95958 9.00727,-0.40941 z m 154.85676,0.20649 c -1.51779,-1.51778 -2.94567,-3.21899 -3.17308,-3.78045 -0.2274,-0.56146 -4.42723,-4.15713 -9.33296,-7.99038 -14.49846,-11.32886 -15.24457,-12.08431 -13.98744,-14.16255 0.60119,-0.99385 2.93802,-2.45928 5.19296,-3.25651 5.10735,-1.8057 7.02012,-0.94904 15.66904,7.01757 7.66019,7.05588 10.43496,8.93194 13.21074,8.93194 2.99245,0 5.3342,3.61619 5.3342,8.2372 0,3.20523 -0.50304,4.09891 -3.25,5.77376 -4.36953,2.66415 -6.38983,2.50305 -9.66346,-0.77058 z m 7.71839,-3.93791 c 0.23074,-3.17618 0.65656,-4.06261 1.75,-3.64302 2.20718,0.84698 1.76662,-2.41699 -0.48919,-3.62427 -3.76574,-2.01536 -7.8979,-1.26311 -9.41967,1.71482 -2.33849,4.57616 0.80317,10.5696 5.26833,10.05056 2.26399,-0.26317 2.62353,-0.82268 2.89053,-4.49809 z m -17.28451,-18.99139 c -6.0456,-5.49411 -8.38321,-6.24198 -12.97337,-4.15056 -4.06684,1.85297 -3.10995,3.33771 6.65161,10.32078 l 9.19867,6.5804 1.48364,-3.71977 1.48364,-3.71977 z m -104.44784,13.05406 c -3.70468,-4.70974 -2.6519,-11.49708 2.17008,-13.99063 7.57451,-3.91692 15.89975,3.03904 12.747,10.65046 -2.58493,6.24057 -11.13048,8.15406 -14.91708,3.34017 z m 9.95491,-0.0572 c 3.30854,-2.26416 3.93911,-3.30915 3.9572,-6.55796 0.0214,-3.83479 -3.21116,-6.75 -7.48469,-6.75 -7.0038,0 -10.04041,7.5505 -5.04545,12.54545 2.88489,2.88489 5.17407,3.0885 8.57294,0.76251 z m 52.1893,1.13134 c -6.12644,-4.29114 -6.09489,-11.89962 0.0626,-15.08376 6.51019,-3.36655 12.72065,0.34923 12.72065,7.61089 0,7.89129 -6.64218,11.77421 -12.78321,7.47287 z m 9.57128,-1.6893 c 2.34042,-2.83219 2.50184,-8.46009 0.30564,-10.65629 C 286.66838,257.66838 278,260.61556 278,266.54545 c 0,5.46851 9.56238,10.10801 12.78807,6.20455 z M 153.58889,245.92327 C 152.165,244.23108 151,241.73815 151,240.38344 c 0,-4.07358 3.78807,-10.21481 8.03386,-13.02455 3.65777,-2.4206 4.14063,-2.51101 5.73025,-1.07301 1.3938,1.26085 4.95459,1.63376 18.06856,1.89222 17.59463,0.34677 19.19213,0.86918 19.15202,6.26303 -0.0356,4.78677 -0.95688,5.05887 -17.12835,5.05887 h -15.20316 l -1.29821,3.17342 c -2.8129,6.87601 -10.32389,8.5291 -14.76608,3.24985 z m 10.11208,0.57363 c 1.18028,-0.82671 2.66159,-3.06544 3.29179,-4.97496 l 1.14582,-3.47186 15.68071,-0.27504 L 199.5,237.5 V 234 230.5 L 183,230 c -11.82884,-0.35845 -17.10045,-0.89916 -18.62097,-1.90997 -4.8347,-3.21398 -13.95411,8.69317 -11.39313,14.87592 1.88744,4.55669 6.8948,6.20677 10.71507,3.53095 z m 182.22211,-0.41998 C 344.31538,244.46923 343,242.4528 343,241.59598 c 0,-2.36833 -4.1923,-2.94604 -16.3928,-2.259 -6.10896,0.34402 -12.094,0.36317 -13.30008,0.0426 -2.63529,-0.70053 -3.93733,-5.33346 -2.33851,-8.32089 1.02769,-1.9203 1.99853,-2.05869 14.44157,-2.05869 16.31708,0 19.42456,-0.54319 20.83659,-3.64225 1.51093,-3.31613 2.34919,-3.02383 7.84075,2.73401 5.44382,5.7078 6.76088,9.80754 4.93146,15.35074 -2.06904,6.26925 -8.2231,7.50723 -13.0959,2.63442 z m 9.49513,0.31609 c 0.86999,-0.33384 1.58179,-1.54884 1.58179,-2.7 0,-1.6279 -0.26667,-1.82634 -1.2,-0.89301 -1.63321,1.63321 -2.8,1.50819 -2.8,-0.3 0,-0.825 -0.7875,-1.50689 -1.75,-1.51531 -3.29859,-0.0289 -4.57372,-1.5113 -3.31806,-3.85752 1.50734,-2.81649 2.82385,-2.68272 5.86214,0.59565 2.39399,2.58316 2.55948,2.62163 3.22629,0.75 0.96717,-2.71469 0.19163,-4.47125 -3.52007,-7.97282 -1.74902,-1.65 -3.47709,-3.675 -3.84017,-4.5 -0.36588,-0.83139 -0.89025,-1.05426 -1.17639,-0.5 -2.0557,3.98195 -2.0929,3.99067 -19.19497,4.5 L 312.5,230.5 v 3.5 3.5 h 14.59435 c 14.87821,0 17.90565,0.69701 17.90565,4.12244 0,3.71103 6.00895,6.46256 10.41821,4.77057 z M 220,228.30467 c -0.825,-0.29559 -4.2,-3.1352 -7.5,-6.31025 -7.8743,-7.57615 -31.84551,-26.73978 -37.24056,-29.77172 -2.33231,-1.31073 -4.51481,-2.82688 -4.85,-3.36923 -1.09188,-1.7667 -0.6419,-7.86845 0.69946,-9.48469 3.60898,-4.34856 12.31412,-3.51583 13.52117,1.29342 0.39106,1.55813 4.08069,5.25809 9.74955,9.77684 5.01621,3.99852 12.04538,9.92505 15.62038,13.17006 3.575,3.24502 8.075,6.98287 10,8.30635 9.90819,6.81208 11.68504,11.47685 5.75,15.09551 -3.46775,2.11433 -3.46276,2.11321 -5.75,1.29371 z m 5.91136,-3.71032 c 2.90266,-3.08974 1.84534,-5.29627 -4.67635,-9.75908 -2.60426,-1.78209 -7.0423,-5.41213 -9.86232,-8.06674 -2.82002,-2.65462 -9.98587,-8.75102 -15.92411,-13.54755 C 189.51035,188.42444 183.90936,183.15 183.00194,181.5 c -3.47637,-6.32123 -12.40365,-3.7184 -11.80045,3.44054 0.25374,3.01147 0.91573,3.86498 4.41424,5.69134 4.76424,2.48713 29.00823,21.93149 38.04772,30.51534 6.78764,6.44552 8.87829,7.03392 12.24791,3.44713 z m 60.58864,3.2107 c -5.30595,-3.00881 -4.85648,-7.55553 1.25,-12.64458 2.6125,-2.17723 12.175,-10.09363 21.25,-17.59201 9.075,-7.49838 17.51905,-15.19381 18.76456,-17.10094 3.08394,-4.72217 7.86689,-4.88266 11.64655,-0.39079 4.07488,4.84271 3.18743,8.92702 -2.61436,12.03205 -5.61201,3.00345 -29.67479,22.54598 -36.98502,30.03728 -6.86863,7.03878 -9.16043,8.01305 -13.31173,5.65899 z m 11.29316,-5.93306 c 5.43612,-5.92254 27.86776,-24.24772 36.32594,-29.67591 6.2371,-4.00277 7.27648,-5.76964 5.4955,-9.34195 -2.52861,-5.07188 -8.58733,-5.5476 -10.92543,-0.85785 -0.6614,1.32665 -6.20008,6.48271 -12.30816,11.45791 -34.85009,28.38634 -34.27462,27.79591 -30.81616,31.61747 3.16041,3.49221 7.0108,2.48471 12.22831,-3.19967 z M 161.35727,206.4225 c -2.41835,-3.69087 -0.86907,-7.80242 3.11182,-8.25829 3.45643,-0.39581 5.53091,1.85151 5.53091,5.99174 0,4.96818 -5.8648,6.50622 -8.64273,2.26655 z M 166.8,205.8 c 2.84846,-2.84846 -0.26432,-8.31939 -3.3,-5.8 -1.53009,1.26986 -2.03785,5.12882 -0.83333,6.33333 1.02424,1.02425 2.8056,0.7944 4.13333,-0.53333 z m 178.45,1.53772 c -0.6875,-0.27741 -1.25,-1.76179 -1.25,-3.29861 0,-5.94331 7.24936,-7.13876 7.81341,-1.28847 0.26301,2.72797 -0.10924,3.41134 -2.3151,4.25 -1.44568,0.54965 -2.71171,0.96383 -2.81341,0.92041 -0.10169,-0.0434 -0.7474,-0.30592 -1.4349,-0.58333 z m 5.41813,-2.91526 c 0.33295,-0.86765 -0.0392,-2.22205 -0.82688,-3.00978 -1.90111,-1.90112 -5.4982,0.43294 -4.53511,2.94271 0.8044,2.09625 4.56527,2.14329 5.36199,0.0671 z m -130.75569,-10.6234 -5.16048,-6.20094 0.47659,-9.89745 c 0.43473,-9.02793 0.29675,-10.06501 -1.57057,-11.80469 -2.45115,-2.28359 -4.49722,-1.81317 -10.3772,2.38583 -4.0835,2.9161 -4.34083,2.96673 -8,1.57404 -5.20068,-1.9794 -5.36983,-6.20532 -0.3829,-9.56602 3.94689,-2.6598 6.76815,-2.90205 9.11049,-0.78225 2.39756,2.16975 7.85478,0.88687 9.24959,-2.17439 2.30475,-5.05838 10.18634,-7.76439 15.05778,-5.16985 3.43451,1.82923 4.61816,4.00619 4.65246,8.55672 0.0267,3.54806 -0.44592,4.57326 -2.9682,6.43806 -4.12722,3.05139 -4.41526,10.68454 -0.5,13.24992 2.27495,1.49061 2.5,2.27204 2.5,8.68075 0,13.0708 -3.87365,14.58028 -12.08756,4.71027 z m 10.21154,1.68873 c 1.58473,-7.40522 0.9989,-12.23146 -1.7256,-14.21612 -1.9415,-1.41429 -2.7315,-3.04746 -3.1135,-6.43657 -0.47214,-4.18885 -0.23135,-4.82197 3.10162,-8.15493 4.23151,-4.23151 4.60815,-7.41229 1.32911,-11.22441 -4.23908,-4.92822 -11.7486,-3.21938 -15.90784,3.61995 l -1.96189,3.22606 2.57706,2.38958 C 216.87851,166.96828 217,167.57831 217,177.63098 v 10.55004 l 4.6581,5.45236 c 5.12072,5.99387 7.46991,6.50844 8.46588,1.85441 z m -27.21794,-28.88777 2.25466,-2.39998 -2.16095,-2.48532 c -2.42775,-2.79216 -4.28541,-2.65682 -8.38336,0.61078 -4.15352,3.3119 -2.40841,6.20263 3.9593,6.5585 1.14162,0.0638 3.09028,-0.96399 4.33035,-2.28398 z m 78.66409,32.07492 c -2.60224,-1.9028 -3.51006,-14.59215 -1.20861,-16.8936 0.88152,-0.88152 2.069,-1.75818 2.63885,-1.94813 0.56984,-0.18995 1.31065,-2.66369 1.64624,-5.49721 0.58809,-4.96548 0.50159,-5.208 -2.39112,-6.70388 C 274.1571,163.44428 277.88749,152 287.35095,152 c 7.4939,0 13.06805,8.2177 9.11725,13.44113 -1.08843,1.43903 -1.4682,4.84437 -1.4682,13.16505 0,10.16879 -0.21152,11.47906 -2.25,13.93797 -6.5484,7.89897 -7.8132,8.59256 -11.17987,6.13079 z m 8.59399,-5.42494 c 3.20396,-4.60364 3.30934,-5.07377 3.42,-15.25794 0.0821,-7.55351 0.57025,-11.3899 1.73629,-13.64477 1.54636,-2.99032 1.51753,-3.29201 -0.61726,-6.45982 -2.80378,-4.16053 -7.32763,-5.65348 -11.33555,-3.74093 -2.39561,1.14317 -2.91832,2.06886 -3.17574,5.62407 -0.27814,3.84135 -0.011,4.42477 2.74368,5.99253 2.8503,1.62217 3.05223,2.11969 3.05814,7.53461 0.005,4.90429 -0.37894,6.15479 -2.49368,8.11467 -2.08843,1.93549 -2.5,3.2312 -2.5,7.87046 0,7.08292 0.66292,8.71712 3.53614,8.71712 1.63966,0 3.29377,-1.39607 5.62798,-4.75 z M 310.5,168.15832 c -4.12222,-2.52033 -5.65381,-4.59393 -4.88087,-6.60818 1.48193,-3.86184 9.21613,-3.81918 13.51866,0.0746 2.36064,2.13635 2.37292,4.60314 0.0335,6.72031 -2.36947,2.14434 -4.94951,2.08879 -8.67126,-0.18669 z m 8.22899,-1.41903 c 2.04978,-1.58331 -0.37116,-4.56585 -4.63891,-5.71503 -7.85631,-2.11549 -10.18275,2.68889 -2.88434,5.95649 4.06686,1.82079 4.88753,1.79445 7.52325,-0.24146 z"
         id="path3" />
      <path
         style="fill:#141216"
         d="M 0,256 V 0 H 256 512 V 256 512 H 256 0 Z m 231,88.13211 c 0,-43.2755 0.3418,-40.73838 -6.13119,-45.51095 l -3.63119,-2.6773 -28.23937,-0.48222 c -23.16024,-0.39549 -28.84929,-0.77165 -31.63044,-2.09139 -3.70146,-1.75646 -8.00968,-6.36613 -9.66676,-10.34315 -0.57912,-1.38991 -4.09722,-9.13176 -7.81799,-17.20412 -9.55645,-20.73306 -9.96698,-25.42895 -3.18689,-36.45391 2.96833,-4.82673 3.64548,-6.93467 3.81282,-11.86907 0.19383,-5.71528 7.00555,-27.79298 10.8967,-35.31763 1.75796,-3.39951 7.60112,-8.81433 13.09431,-12.1344 2.2,-1.32967 7.03442,-5.24856 10.74316,-8.70865 8.13053,-7.5854 15.67985,-12.07033 21.7522,-12.92261 2.47755,-0.34774 8.10464,-2.25289 12.50464,-4.23367 7.2194,-3.25001 9.02454,-3.63843 18.5,-3.98074 9.73922,-0.35183 10.75335,-0.20716 13.99669,1.9968 2.16771,1.47302 3.73804,3.50203 4.13169,5.3385 0.34924,1.62932 0.68823,18.3382 0.75331,37.13084 L 251,218.83688 l -3.25,2.01559 c -15.51449,9.62181 -16.74519,24.44025 -2.844,34.24364 l 6.094,4.29761 v 55.76795 c 0,54.11269 0.0574,55.79869 1.93426,56.80315 1.06384,0.56935 3.31384,1.03518 5,1.03518 H 261 v -56.98746 -56.98745 l 3.7923,-2.39398 C 272.23952,251.92989 275,247.68465 275,240.93309 c 0,-8.10022 -1.74374,-11.73325 -8.38251,-17.46476 L 261,218.61855 v -36.17442 c 0,-34.45235 0.0936,-36.2934 1.96611,-38.67391 5.09222,-6.47371 20.92779,-6.61758 35.09849,-0.31888 4.63947,2.06219 10.55392,4.12414 13.14323,4.58212 7.19414,1.27244 10.74902,3.37175 20.34646,12.01544 4.85564,4.3731 9.15192,7.9511 9.54728,7.9511 1.4132,0 10.70404,7.91826 12.88554,10.9819 3.77539,5.30204 13.06063,32.70721 12.87345,37.99568 -0.12304,3.47635 0.47852,5.58003 2.44928,8.56528 8.1093,12.2837 7.80145,18.90417 -1.89789,40.81541 -9.35422,21.13157 -10.58945,23.16416 -16.26425,26.76301 L 346.60844,296 h -27.65418 -27.65418 l -4.09806,2.96862 c -2.25394,1.63274 -4.54273,3.79948 -5.08621,4.81498 -1.46249,2.7327 -1.94824,81.21773 -0.50265,81.21698 0.61224,-3.2e-4 3.19974,-2.2313 5.75,-4.95774 L 292,375.08568 v -31.82033 c 0,-27.18142 0.22694,-32.14434 1.5567,-34.04284 1.53995,-2.19858 1.83332,-2.22252 27.25,-2.2233 l 25.6933,-7.9e-4 6.04631,-2.86041 c 9.6669,-4.57327 14.76776,-11.16361 23.13182,-29.88649 C 385.73798,251.73263 385.5,252.50196 385.5,242.5 c 0,-8.3474 -0.27369,-9.57321 -3.77442,-16.9052 -2.07592,-4.34787 -5.12075,-13.23807 -6.76628,-19.75602 C 369.52352,184.30765 365.54899,176.3601 355.78626,167.5 327.14904,141.51049 321.9811,137.95856 309.5,135.68733 c -4.4,-0.80068 -10.925,-2.71651 -14.5,-4.2574 -5.20505,-2.24347 -8.42157,-2.88654 -16.14531,-3.22788 -10.70989,-0.4733 -15.21015,0.54328 -19.90936,4.49741 l -3.00386,2.52758 -3.72074,-2.4573 c -9.23558,-6.09948 -25.19847,-6.56013 -37.72073,-1.08854 -3.85,1.68226 -9.91925,3.61083 -13.48723,4.28572 -3.56797,0.67489 -7.84297,1.91045 -9.5,2.7457 -4.11684,2.07515 -15.72493,10.85363 -23.09964,17.46882 -3.34778,3.00299 -8.19453,6.97359 -10.77057,8.82356 -10.24118,7.35467 -15.51817,17.23454 -21.15128,39.60064 -1.82563,7.24859 -5.01532,16.94016 -7.0882,21.53681 -3.40919,7.55994 -3.76854,9.16876 -3.76532,16.85755 0.004,9.3122 0.11378,9.66033 10.10031,32 8.49497,19.00308 12.35004,23.91557 22.80541,29.06082 4.79448,2.35944 5.84866,2.45553 32.24479,2.93918 22.78954,0.41757 27.44429,0.74729 28.23468,2 0.54284,0.86035 0.95295,15.00009 0.96174,33.15833 l 0.0153,31.65833 4.56852,5.60834 c 2.51269,3.08459 4.98769,5.34928 5.5,5.03265 C 230.61855,384.11772 231,367.60398 231,344.13211 Z m 20.38435,-97.56649 c -7.83897,-3.41193 -4.97556,-15.89895 3.6458,-15.89895 8.17171,0 12.04148,9.57093 5.94418,14.70148 -3.51121,2.95449 -5.09799,3.15262 -9.58998,1.19747 z M 178.4133,285.3949 c 0.86728,-0.33281 2.57024,-2.37257 3.78436,-4.5328 1.21412,-2.16024 4.47883,-5.64861 7.25492,-7.75194 C 197.37794,267.10542 205,259.941 205,258.49622 205,256.71858 199.27562,252 197.11906,252 c -2.64175,0 -10.05903,5.17709 -15.57487,10.87089 -3.19365,3.2967 -6.09701,5.3298 -8.16531,5.71781 C 162.72552,270.58728 162.8584,286 173.529,286 c 1.81908,0 4.01702,-0.2723 4.8843,-0.6051 z M 342.75,284.01096 c 2.74696,-1.67485 3.25,-2.56853 3.25,-5.77376 0,-4.62101 -2.34175,-8.2372 -5.3342,-8.2372 -2.77578,0 -5.55055,-1.87606 -13.21074,-8.93194 -8.64892,-7.96661 -10.56169,-8.82327 -15.66904,-7.01757 -2.25494,0.79723 -4.59177,2.26266 -5.19296,3.25651 -1.25713,2.07824 -0.51102,2.83369 13.98744,14.16255 4.90573,3.83325 9.10556,7.42892 9.33296,7.99038 0.89597,2.21216 6.03362,6.53986 7.75962,6.53633 1.0048,-0.002 3.28942,-0.89544 5.07692,-1.9853 z m -112.31594,-9.55971 c 6.8087,-4.46123 4.95331,-14.53755 -2.94987,-16.02019 -8.57716,-1.60909 -13.93794,7.90849 -8.41161,14.93408 2.42548,3.08349 7.56346,3.57466 11.36148,1.08611 z m 61.52698,-0.63981 c 2.70883,-2.90758 2.84249,-10.77428 0.22334,-13.14458 -7.04011,-6.37121 -18.97384,1.03823 -14.76888,9.16974 3.22483,6.23613 10.56908,8.24308 14.54554,3.97484 z M 164.80587,247.42342 c 1.23799,-0.86712 2.83509,-3.00462 3.5491,-4.75 L 169.65318,239.5 h 15.20316 c 16.17147,0 17.09275,-0.2721 17.12835,-5.05887 0.0401,-5.39385 -1.55739,-5.91626 -19.15202,-6.26303 -13.11397,-0.25846 -16.67476,-0.63137 -18.06856,-1.89222 C 161.08788,222.96029 151,233.29256 151,240.38344 c 0,6.53125 8.40972,10.81959 13.80587,7.03998 z m 191.17979,0.58426 c 2.48095,-1.32777 4.36078,-7.34747 3.58531,-11.4811 C 358.9616,233.27842 350.37903,223 348.27613,223 c -0.5253,0 -1.43852,1.06099 -2.02936,2.35775 -1.41203,3.09906 -4.51951,3.64225 -20.83659,3.64225 -12.44304,0 -13.41388,0.13839 -14.44157,2.05865 -1.59882,2.98743 -0.29678,7.62036 2.33851,8.32089 1.20608,0.32061 7.19112,0.30146 13.30008,-0.0426 12.2005,-0.68704 16.3928,-0.10933 16.3928,2.259 0,0.85682 1.31538,2.87325 2.92308,4.48094 3.03376,3.03377 6.69054,3.73541 10.06258,1.93076 z M 225.75,227.01096 c 5.93504,-3.61866 4.15819,-8.28343 -5.75,-15.09551 -1.925,-1.32348 -6.425,-5.06133 -10,-8.30635 -3.575,-3.24501 -10.60417,-9.17154 -15.62038,-13.17006 -5.66886,-4.51875 -9.35849,-8.21871 -9.74955,-9.77684 -1.20705,-4.80925 -9.91219,-5.64198 -13.52117,-1.29342 -1.34136,1.61624 -1.79134,7.71799 -0.69946,9.48469 0.33519,0.54235 2.51769,2.0585 4.85,3.36923 5.39505,3.03194 29.36626,22.19557 37.24056,29.77172 5.2178,5.02024 7.39404,6.60612 9.5,6.92289 0.275,0.0414 1.9625,-0.81649 3.75,-1.90635 z m 74.06173,-4.8649 c 7.31023,-7.4913 31.37301,-27.03383 36.98502,-30.03728 5.80179,-3.10503 6.68924,-7.18934 2.61436,-12.03205 -3.77966,-4.49187 -8.56261,-4.33138 -11.64655,0.39079 -1.24551,1.90713 -9.68956,9.60256 -18.76456,17.10094 -9.075,7.49838 -18.6375,15.41478 -21.25,17.59201 -6.10648,5.08905 -6.55595,9.63577 -1.25,12.64458 4.1513,2.35406 6.4431,1.37979 13.31173,-5.65899 z M 168.06574,207.96482 c 4.40846,-2.35934 1.46493,-10.38023 -3.59665,-9.80061 -3.98089,0.45587 -5.53017,4.56742 -3.11182,8.25829 1.81365,2.76799 3.6356,3.18687 6.70847,1.54232 z m 181.43257,-0.96418 c 2.20586,-0.83866 2.57811,-1.52203 2.3151,-4.25 C 351.24936,196.90035 344,198.0958 344,204.03911 c 0,1.53682 0.5625,3.0212 1.25,3.29861 0.6875,0.27741 1.33321,0.53991 1.4349,0.58333 0.1017,0.0434 1.36773,-0.37076 2.81341,-0.92041 z m -118.53349,-8.9349 C 231.53417,197.0019 232,192.96227 232,189.08879 c 0,-6.40871 -0.22505,-7.19014 -2.5,-8.68075 -3.91526,-2.56538 -3.62722,-10.19853 0.5,-13.24992 4.96213,-3.66866 4.0319,-11.95033 -1.68426,-14.99478 -4.87144,-2.59454 -12.75303,0.11147 -15.05778,5.16985 -1.39481,3.06126 -6.85203,4.34414 -9.24959,2.17439 -2.34234,-2.1198 -5.1636,-1.87755 -9.11049,0.78225 -4.98693,3.3607 -4.81778,7.58662 0.3829,9.56602 3.65917,1.39269 3.9165,1.34206 8,-1.57404 5.87998,-4.199 7.92605,-4.66942 10.3772,-2.38583 1.86732,1.73968 2.0053,2.77676 1.57057,11.80469 l -0.47659,9.89745 5.16048,6.20094 c 5.5261,6.64028 9.05333,8.00194 11.05238,4.26668 z m 57.33063,-0.43664 C 295.13902,190.26912 295,190.66357 295,178.60618 c 0,-8.32068 0.37977,-11.72602 1.4682,-13.16505 2.28683,-3.02346 1.80497,-6.06042 -1.57179,-9.90633 -4.00849,-4.56542 -10.47315,-5.04897 -14.44186,-1.08025 -3.94659,3.94658 -3.02616,10.68138 1.80094,13.17757 2.89271,1.49588 2.97921,1.7384 2.39112,6.70388 -0.33559,2.83352 -1.0764,5.30726 -1.64624,5.49721 -3.36323,1.12108 -4.23907,3.58657 -3.742,10.53378 0.67567,9.44343 4.3004,12.35622 9.03708,7.26211 z m 30.87581,-29.28409 c 2.33945,-2.11717 2.32717,-4.58396 -0.0335,-6.72031 -4.30253,-3.89374 -12.03673,-3.9364 -13.51866,-0.0746 -0.77294,2.01425 0.75865,4.08785 4.88087,6.60818 3.72175,2.27548 6.30179,2.33103 8.67126,0.18669 z"
         id="path2" />
    </g>
  </g>
</svg>
